<svg width="14" height="14" viewBox="0 0 14 14" fill="none" xmlns="http://www.w3.org/2000/svg">
<path d="M7 0C3.143 0 0 3.143 0 7C0 10.857 3.143 14 7 14C10.857 14 14 10.857 14 7C14 3.143 10.857 0 7 0ZM6.475 4.2C6.475 3.913 6.713 3.675 7 3.675C7.287 3.675 7.525 3.913 7.525 4.2V7.7C7.525 7.987 7.287 8.225 7 8.225C6.713 8.225 6.475 7.987 6.475 7.7V4.2ZM7.644 10.066C7.609 10.157 7.56 10.227 7.497 10.297C7.427 10.36 7.35 10.409 7.266 10.444C7.182 10.479 7.091 10.5 7 10.5C6.909 10.5 6.818 10.479 6.734 10.444C6.65 10.409 6.573 10.36 6.503 10.297C6.44 10.227 6.391 10.157 6.356 10.066C6.321 9.982 6.3 9.891 6.3 9.8C6.3 9.709 6.321 9.618 6.356 9.534C6.391 9.45 6.44 9.373 6.503 9.303C6.573 9.24 6.65 9.191 6.734 9.156C6.902 9.086 7.098 9.086 7.266 9.156C7.35 9.191 7.427 9.24 7.497 9.303C7.56 9.373 7.609 9.45 7.644 9.534C7.679 9.618 7.7 9.709 7.7 9.8C7.7 9.891 7.679 9.982 7.644 10.066Z" fill="#335661"/>
</svg>
