<svg width="14" height="16" viewBox="0 0 14 16" fill="none" xmlns="http://www.w3.org/2000/svg">
<path d="M14 7.1591V3.71017C14 3.06594 13.5129 2.3353 12.908 2.09176L8.53197 0.300506C7.54993 -0.100169 6.44218 -0.100169 5.46014 0.300506L1.08418 2.09176C0.487094 2.3353 0 3.06594 0 3.71017V7.1591C0 11.0009 2.78901 14.5991 6.59931 15.6518C6.85857 15.7225 7.1414 15.7225 7.40066 15.6518C11.211 14.5991 14 11.0009 14 7.1591ZM7.58921 8.53396V10.6002C7.58921 10.9223 7.32209 11.1894 6.99998 11.1894C6.67787 11.1894 6.41076 10.9223 6.41076 10.6002V8.53396C5.61727 8.28256 5.03593 7.54406 5.03593 6.67201C5.03593 5.58784 5.91581 4.70792 6.99998 4.70792C8.08416 4.70792 8.96407 5.58784 8.96407 6.67201C8.96407 7.55192 8.3827 8.28256 7.58921 8.53396Z" fill="#335661"/>
</svg>
