<svg width="15" height="14" viewBox="0 0 15 14" fill="none" xmlns="http://www.w3.org/2000/svg">
<path d="M11.25 0H3.75C1.5 0 0 1.46343 0 3.65857V8.04885C0 10.244 1.5 11.7074 3.75 11.7074V13.266C3.75 13.8513 4.4175 14.2026 4.9125 13.8733L8.25 11.7074H11.25C13.5 11.7074 15 10.244 15 8.04885V3.65857C15 1.46343 13.5 0 11.25 0ZM7.5 8.90495C7.185 8.90495 6.9375 8.65617 6.9375 8.35617C6.9375 8.05617 7.185 7.80738 7.5 7.80738C7.815 7.80738 8.0625 8.05617 8.0625 8.35617C8.0625 8.65617 7.815 8.90495 7.5 8.90495ZM8.445 5.86835C8.1525 6.05859 8.0625 6.18298 8.0625 6.38786V6.54152C8.0625 6.84152 7.8075 7.09031 7.5 7.09031C7.1925 7.09031 6.9375 6.84152 6.9375 6.54152V6.38786C6.9375 5.53907 7.575 5.12199 7.815 4.96101C8.0925 4.77809 8.1825 4.65369 8.1825 4.46345C8.1825 4.09759 7.875 3.79759 7.5 3.79759C7.125 3.79759 6.8175 4.09759 6.8175 4.46345C6.8175 4.76345 6.5625 5.01223 6.255 5.01223C5.9475 5.01223 5.6925 4.76345 5.6925 4.46345C5.6925 3.49027 6.5025 2.70002 7.5 2.70002C8.4975 2.70002 9.3075 3.49027 9.3075 4.46345C9.3075 5.2976 8.6775 5.71469 8.445 5.86835Z" fill="#335661"/>
</svg>
