<svg width="25" height="25" viewBox="0 0 25 25" fill="none" xmlns="http://www.w3.org/2000/svg">
<path d="M22.7625 7.8801L14.4 0.823205C13.1088 -0.272269 11.0212 -0.272269 9.74205 0.810467L1.37951 7.8801C0.438272 8.66986 -0.165085 10.3385 0.0400566 11.5868L1.64499 21.7263C1.9346 23.5351 3.57573 25 5.3134 25H18.8286C20.5542 25 22.2074 23.5224 22.497 21.7263L24.1019 11.5868C24.295 10.3385 23.6917 8.66986 22.7625 7.8801ZM12.071 16.9623C10.4057 16.9623 9.05421 15.5356 9.05421 13.7778C9.05421 12.0199 10.4057 10.5932 12.071 10.5932C13.7363 10.5932 15.0878 12.0199 15.0878 13.7778C15.0878 15.5356 13.7363 16.9623 12.071 16.9623Z" fill="#04325F"/>
</svg>
