<svg width="14" height="14" viewBox="0 0 14 14" fill="none" xmlns="http://www.w3.org/2000/svg">
<path d="M10.3644 14.0097H8.54316C6.30161 14.0097 4.90063 12.6087 4.90063 10.3672V7.53021H9.27867C9.56587 7.53021 9.80404 7.29204 9.80404 7.00485C9.80404 6.71765 9.56587 6.47948 9.27867 6.47948H4.90063V3.64251C4.90063 1.40096 6.30161 -1.43051e-05 8.54316 -1.43051e-05H10.3574C12.599 -1.43051e-05 13.9999 1.40096 13.9999 3.64251V10.3672C14.007 12.6087 12.606 14.0097 10.3644 14.0097Z" fill="#335661"/>
<path d="M1.79149 7.53033L3.2415 8.98031C3.34657 9.08538 3.39561 9.21848 3.39561 9.35157C3.39561 9.48466 3.34657 9.62476 3.2415 9.72283C3.03836 9.92597 2.70212 9.92597 2.49898 9.72283L0.152356 7.37623C-0.0507852 7.17309 -0.0507852 6.83685 0.152356 6.63371L2.49898 4.28708C2.70212 4.08394 3.03836 4.08394 3.2415 4.28708C3.44464 4.49023 3.44464 4.82646 3.2415 5.0296L1.79149 6.47961H4.90165V7.53033H1.79149Z" fill="#335661"/>
</svg>
